<?xml version="1.0" encoding="UTF-8"?>
<svg xmlns="http://www.w3.org/2000/svg" xmlns:xlink="http://www.w3.org/1999/xlink" width="540pt" height="334pt" viewBox="0 0 540 334" version="1.1">
<g id="surface16">
<path style="fill-rule:nonzero;fill:rgb(69.999695%,69.999695%,69.999695%);fill-opacity:1;stroke-width:1;stroke-linecap:square;stroke-linejoin:miter;stroke:rgb(69.999695%,69.999695%,69.999695%);stroke-opacity:1;stroke-miterlimit:3.239307;" d="M 365.640625 166.871094 L 270 166.871094 L 273 184.515625 L 276 201.851562 L 279 218.570312 L 282 234.382812 L 285 249.027344 L 288 262.269531 L 291 273.914062 L 294 283.800781 L 297 291.8125 L 300 297.882812 L 303 301.984375 L 306 304.136719 L 309 304.398438 L 312 302.871094 L 315 299.679688 L 318 294.988281 L 321 288.96875 L 324 281.828125 L 327 273.761719 L 330 264.988281 L 333 255.710938 L 336 246.128906 L 339 236.4375 L 342 226.804688 L 345 217.390625 L 348 208.328125 L 351 199.734375 L 354 191.699219 L 357 184.292969 L 360 177.5625 L 363 171.542969 Z M 365.640625 166.871094 "/>
<path style="fill-rule:nonzero;fill:rgb(69.999695%,69.999695%,69.999695%);fill-opacity:1;stroke-width:1;stroke-linecap:square;stroke-linejoin:miter;stroke:rgb(69.999695%,69.999695%,69.999695%);stroke-opacity:1;stroke-miterlimit:3.239307;" d="M 174.359375 166.871094 L 0 166.871094 L 0 168.363281 L 6 168.488281 L 9 168.554688 L 12 168.625 L 15 168.699219 L 18 168.777344 L 24 168.949219 L 27 169.046875 L 30 169.148438 L 33 169.257812 L 36 169.375 L 39 169.5 L 42 169.636719 L 45 169.78125 L 48 169.9375 L 51 170.109375 L 54 170.292969 L 57 170.492188 L 60 170.707031 L 63 170.945312 L 66 171.199219 L 69 171.480469 L 72 171.785156 L 75 172.121094 L 78 172.484375 L 81 172.886719 L 84 173.320312 L 87 173.792969 L 90 174.308594 L 93 174.867188 L 96 175.476562 L 99 176.128906 L 102 176.828125 L 105 177.578125 L 108 178.371094 L 111 179.207031 L 114 180.078125 L 117 180.980469 L 120 181.902344 L 123 182.828125 L 126 183.742188 L 129 184.621094 L 132 185.445312 L 135 186.179688 L 138 186.792969 L 141 187.242188 L 144 187.492188 L 147 187.492188 L 150 187.1875 L 153 186.53125 L 156 185.460938 L 159 183.929688 L 162 181.875 L 165 179.25 L 168 176.003906 L 171 172.101562 L 174 167.503906 Z M 174.359375 166.871094 "/>
<path style="fill-rule:nonzero;fill:rgb(69.999695%,69.999695%,69.999695%);fill-opacity:1;stroke-width:1;stroke-linecap:square;stroke-linejoin:miter;stroke:rgb(69.999695%,69.999695%,69.999695%);stroke-opacity:1;stroke-miterlimit:3.239307;" d="M 174.359375 166.871094 L 270 166.871094 L 267 149.222656 L 264 131.886719 L 261 115.167969 L 258 99.355469 L 255 84.710938 L 252 71.46875 L 249 59.824219 L 246 49.9375 L 243 41.925781 L 240 35.855469 L 237 31.753906 L 234 29.601562 L 231 29.339844 L 228 30.867188 L 225 34.058594 L 222 38.75 L 219 44.769531 L 216 51.910156 L 213 59.976562 L 210 68.75 L 207 78.027344 L 204 87.609375 L 201 97.300781 L 198 106.933594 L 195 116.347656 L 192 125.410156 L 189 134.003906 L 186 142.039062 L 183 149.445312 L 180 156.175781 L 177 162.195312 Z M 174.359375 166.871094 "/>
<path style="fill-rule:nonzero;fill:rgb(69.999695%,69.999695%,69.999695%);fill-opacity:1;stroke-width:1;stroke-linecap:square;stroke-linejoin:miter;stroke:rgb(69.999695%,69.999695%,69.999695%);stroke-opacity:1;stroke-miterlimit:3.239307;" d="M 365.640625 166.871094 L 540 166.871094 L 540 165.375 L 534 165.25 L 531 165.183594 L 528 165.113281 L 525 165.039062 L 522 164.960938 L 516 164.789062 L 513 164.691406 L 510 164.589844 L 507 164.480469 L 504 164.363281 L 501 164.238281 L 498 164.101562 L 495 163.957031 L 492 163.800781 L 489 163.628906 L 486 163.445312 L 483 163.246094 L 480 163.03125 L 477 162.792969 L 474 162.539062 L 471 162.257812 L 468 161.953125 L 465 161.617188 L 462 161.253906 L 459 160.855469 L 456 160.417969 L 453 159.945312 L 450 159.429688 L 447 158.871094 L 444 158.265625 L 441 157.609375 L 438 156.910156 L 435 156.160156 L 432 155.367188 L 429 154.53125 L 426 153.660156 L 423 152.757812 L 420 151.835938 L 417 150.910156 L 414 149.996094 L 411 149.117188 L 408 148.292969 L 405 147.558594 L 402 146.945312 L 399 146.496094 L 396 146.246094 L 393 146.246094 L 390 146.550781 L 387 147.207031 L 384 148.277344 L 381 149.808594 L 378 151.863281 L 375 154.488281 L 372 157.734375 L 369 161.636719 L 366 166.234375 Z M 365.640625 166.871094 "/>
<path style="fill:none;stroke-width:2.4;stroke-linecap:square;stroke-linejoin:miter;stroke:rgb(99.998474%,99.998474%,99.998474%);stroke-opacity:1;stroke-miterlimit:3.25;" d="M 0 168.363281 L 6 168.488281 L 9 168.554688 L 12 168.625 L 15 168.699219 L 18 168.777344 L 24 168.949219 L 27 169.046875 L 30 169.148438 L 33 169.257812 L 36 169.375 L 39 169.5 L 42 169.636719 L 45 169.78125 L 48 169.9375 L 51 170.109375 L 54 170.292969 L 57 170.492188 L 60 170.707031 L 63 170.945312 L 66 171.199219 L 69 171.480469 L 72 171.785156 L 75 172.121094 L 78 172.484375 L 81 172.886719 L 84 173.320312 L 87 173.792969 L 90 174.308594 L 93 174.867188 L 96 175.476562 L 99 176.128906 L 102 176.828125 L 105 177.578125 L 108 178.371094 L 111 179.207031 L 114 180.078125 L 117 180.980469 L 120 181.902344 L 123 182.828125 L 126 183.742188 L 129 184.621094 L 132 185.445312 L 135 186.179688 L 138 186.792969 L 141 187.242188 L 144 187.492188 L 147 187.492188 L 150 187.1875 L 153 186.53125 L 156 185.460938 L 159 183.929688 L 162 181.875 L 165 179.25 L 168 176.003906 L 171 172.101562 L 174 167.503906 L 174.359375 166.871094 L 177 162.195312 L 180 156.175781 L 183 149.445312 L 186 142.039062 L 189 134.003906 L 192 125.410156 L 195 116.347656 L 198 106.933594 L 201 97.300781 L 204 87.609375 L 207 78.027344 L 210 68.75 L 213 59.976562 L 216 51.910156 L 219 44.769531 L 222 38.75 L 225 34.058594 L 228 30.867188 L 231 29.339844 L 234 29.601562 L 237 31.753906 L 240 35.855469 L 243 41.925781 L 246 49.9375 L 249 59.824219 L 252 71.46875 L 255 84.710938 L 258 99.355469 L 261 115.167969 L 264 131.886719 L 267 149.222656 L 270 166.871094 L 273 184.515625 L 276 201.851562 L 279 218.570312 L 282 234.382812 L 285 249.027344 L 288 262.269531 L 291 273.914062 L 294 283.800781 L 297 291.8125 L 300 297.882812 L 303 301.984375 L 306 304.136719 L 309 304.398438 L 312 302.871094 L 315 299.679688 L 318 294.988281 L 321 288.96875 L 324 281.828125 L 327 273.761719 L 330 264.988281 L 333 255.710938 L 336 246.128906 L 339 236.4375 L 342 226.804688 L 345 217.390625 L 348 208.328125 L 351 199.734375 L 354 191.699219 L 357 184.292969 L 360 177.5625 L 363 171.542969 L 365.640625 166.871094 L 366 166.234375 L 369 161.636719 L 372 157.734375 L 375 154.488281 L 378 151.863281 L 381 149.808594 L 384 148.277344 L 387 147.207031 L 390 146.550781 L 393 146.246094 L 396 146.246094 L 399 146.496094 L 402 146.945312 L 405 147.558594 L 408 148.292969 L 411 149.117188 L 414 149.996094 L 417 150.910156 L 420 151.835938 L 423 152.757812 L 426 153.660156 L 429 154.53125 L 432 155.367188 L 435 156.160156 L 438 156.910156 L 441 157.609375 L 444 158.265625 L 447 158.871094 L 450 159.429688 L 453 159.945312 L 456 160.417969 L 459 160.855469 L 462 161.253906 L 465 161.617188 L 468 161.953125 L 471 162.257812 L 474 162.539062 L 477 162.792969 L 480 163.03125 L 483 163.246094 L 486 163.445312 L 489 163.628906 L 492 163.800781 L 495 163.957031 L 498 164.101562 L 501 164.238281 L 504 164.363281 L 507 164.480469 L 510 164.589844 L 513 164.691406 L 516 164.789062 L 522 164.960938 L 525 165.039062 L 528 165.113281 L 531 165.183594 L 534 165.25 L 540 165.375 "/>
<path style="fill-rule:nonzero;fill:rgb(61.665344%,61.665344%,61.665344%);fill-opacity:1;stroke-width:2.4;stroke-linecap:square;stroke-linejoin:miter;stroke:rgb(61.665344%,61.665344%,61.665344%);stroke-opacity:1;stroke-miterlimit:3.25;" d="M 375.53125 166.871094 L 277.390625 166.871094 L 279 176.273438 L 282 193.464844 L 285 210.003906 L 288 225.613281 L 291 240.042969 L 294 253.070312 L 297 264.515625 L 300 274.242188 L 303 282.148438 L 306 288.183594 L 309 292.332031 L 312 294.628906 L 315 295.136719 L 318 293.964844 L 321 291.238281 L 324 287.117188 L 327 281.777344 L 330 275.40625 L 333 268.191406 L 336 260.332031 L 339 252.023438 L 342 243.441406 L 345 234.761719 L 348 226.140625 L 351 217.710938 L 354 209.601562 L 357 201.902344 L 360 194.695312 L 363 188.042969 L 366 181.980469 L 369 176.535156 L 372 171.714844 L 375 167.507812 Z M 375.53125 166.871094 "/>
<path style="fill-rule:nonzero;fill:rgb(61.665344%,61.665344%,61.665344%);fill-opacity:1;stroke-width:2.4;stroke-linecap:square;stroke-linejoin:miter;stroke:rgb(61.665344%,61.665344%,61.665344%);stroke-opacity:1;stroke-miterlimit:3.25;" d="M 183.621094 166.871094 L 0 166.871094 L 0 168.3125 L 3 168.371094 L 9 168.496094 L 12 168.5625 L 18 168.710938 L 21 168.792969 L 24 168.878906 L 27 168.972656 L 30 169.070312 L 33 169.175781 L 36 169.292969 L 39 169.414062 L 42 169.542969 L 45 169.6875 L 48 169.839844 L 51 170.003906 L 54 170.183594 L 57 170.378906 L 60 170.59375 L 63 170.828125 L 66 171.082031 L 69 171.363281 L 72 171.667969 L 75 172.007812 L 78 172.378906 L 81 172.785156 L 84 173.234375 L 87 173.730469 L 90 174.273438 L 93 174.871094 L 96 175.523438 L 99 176.238281 L 102 177.015625 L 105 177.859375 L 108 178.773438 L 111 179.753906 L 114 180.800781 L 117 181.910156 L 120 183.078125 L 123 184.296875 L 126 185.550781 L 132 188.105469 L 135 189.359375 L 138 190.558594 L 141 191.667969 L 144 192.648438 L 147 193.449219 L 150 194.027344 L 153 194.320312 L 156 194.269531 L 159 193.8125 L 162 192.886719 L 165 191.425781 L 168 189.363281 L 171 186.640625 L 174 183.207031 L 177 179.019531 L 180 174.035156 L 183 168.242188 Z M 183.621094 166.871094 "/>
<path style="fill-rule:nonzero;fill:rgb(61.665344%,61.665344%,61.665344%);fill-opacity:1;stroke-width:2.4;stroke-linecap:square;stroke-linejoin:miter;stroke:rgb(61.665344%,61.665344%,61.665344%);stroke-opacity:1;stroke-miterlimit:3.25;" d="M 183.621094 166.871094 L 277.390625 166.871094 L 276 158.722656 L 273 141.125 L 270 123.792969 L 267 107.035156 L 264 91.144531 L 261 76.398438 L 258 63.039062 L 255 51.285156 L 252 41.308594 L 249 33.246094 L 246 27.175781 L 243 23.144531 L 240 21.144531 L 237 21.128906 L 234 23.003906 L 231 26.644531 L 228 31.890625 L 225 38.566406 L 222 46.457031 L 219 55.355469 L 216 65.039062 L 213 75.277344 L 210 85.855469 L 207 96.5625 L 204 107.214844 L 201 117.628906 L 198 127.652344 L 195 137.160156 L 192 146.042969 L 189 154.21875 L 186 161.628906 Z M 183.621094 166.871094 "/>
<path style="fill-rule:nonzero;fill:rgb(61.665344%,61.665344%,61.665344%);fill-opacity:1;stroke-width:2.4;stroke-linecap:square;stroke-linejoin:miter;stroke:rgb(61.665344%,61.665344%,61.665344%);stroke-opacity:1;stroke-miterlimit:3.25;" d="M 375.53125 166.871094 L 540 166.871094 L 540 165.425781 L 537 165.367188 L 531 165.242188 L 528 165.175781 L 522 165.027344 L 519 164.945312 L 516 164.859375 L 513 164.765625 L 510 164.667969 L 507 164.5625 L 504 164.449219 L 501 164.328125 L 498 164.199219 L 495 164.058594 L 492 163.910156 L 489 163.746094 L 486 163.574219 L 483 163.382812 L 480 163.179688 L 477 162.957031 L 474 162.714844 L 471 162.453125 L 468 162.167969 L 465 161.859375 L 462 161.527344 L 459 161.164062 L 456 160.773438 L 453 160.351562 L 450 159.898438 L 447 159.414062 L 444 158.898438 L 441 158.351562 L 438 157.777344 L 435 157.175781 L 432 156.554688 L 429 155.917969 L 426 155.277344 L 423 154.648438 L 420 154.035156 L 417 153.464844 L 414 152.957031 L 411 152.53125 L 408 152.21875 L 405 152.054688 L 402 152.070312 L 399 152.304688 L 396 152.804688 L 393 153.613281 L 390 154.777344 L 387 156.339844 L 384 158.351562 L 381 160.855469 L 378 163.898438 Z M 375.53125 166.871094 "/>
<path style="fill:none;stroke-width:2.4;stroke-linecap:square;stroke-linejoin:miter;stroke:rgb(91.665649%,91.665649%,91.665649%);stroke-opacity:1;stroke-miterlimit:3.25;" d="M 0 168.3125 L 3 168.371094 L 9 168.496094 L 12 168.5625 L 18 168.710938 L 21 168.792969 L 24 168.878906 L 27 168.972656 L 30 169.070312 L 33 169.175781 L 36 169.292969 L 39 169.414062 L 42 169.542969 L 45 169.6875 L 48 169.839844 L 51 170.003906 L 54 170.183594 L 57 170.378906 L 60 170.59375 L 63 170.828125 L 66 171.082031 L 69 171.363281 L 72 171.667969 L 75 172.007812 L 78 172.378906 L 81 172.785156 L 84 173.234375 L 87 173.730469 L 90 174.273438 L 93 174.871094 L 96 175.523438 L 99 176.238281 L 102 177.015625 L 105 177.859375 L 108 178.773438 L 111 179.753906 L 114 180.800781 L 117 181.910156 L 120 183.078125 L 123 184.296875 L 126 185.550781 L 132 188.105469 L 135 189.359375 L 138 190.558594 L 141 191.667969 L 144 192.648438 L 147 193.449219 L 150 194.027344 L 153 194.320312 L 156 194.269531 L 159 193.8125 L 162 192.886719 L 165 191.425781 L 168 189.363281 L 171 186.640625 L 174 183.207031 L 177 179.019531 L 180 174.035156 L 183 168.242188 L 183.621094 166.871094 L 186 161.628906 L 189 154.21875 L 192 146.042969 L 195 137.160156 L 198 127.652344 L 201 117.628906 L 204 107.214844 L 207 96.5625 L 210 85.855469 L 213 75.277344 L 216 65.039062 L 219 55.355469 L 222 46.457031 L 225 38.566406 L 228 31.890625 L 231 26.644531 L 234 23.003906 L 237 21.128906 L 240 21.144531 L 243 23.144531 L 246 27.175781 L 249 33.246094 L 252 41.308594 L 255 51.285156 L 258 63.039062 L 261 76.398438 L 264 91.144531 L 267 107.035156 L 270 123.792969 L 273 141.125 L 276 158.722656 L 277.390625 166.871094 L 279 176.273438 L 282 193.464844 L 285 210.003906 L 288 225.613281 L 291 240.042969 L 294 253.070312 L 297 264.515625 L 300 274.242188 L 303 282.148438 L 306 288.183594 L 309 292.332031 L 312 294.628906 L 315 295.136719 L 318 293.964844 L 321 291.238281 L 324 287.117188 L 327 281.777344 L 330 275.40625 L 333 268.191406 L 336 260.332031 L 339 252.023438 L 342 243.441406 L 345 234.761719 L 348 226.140625 L 351 217.710938 L 354 209.601562 L 357 201.902344 L 360 194.695312 L 363 188.042969 L 366 181.980469 L 369 176.535156 L 372 171.714844 L 375 167.507812 L 375.53125 166.871094 L 378 163.898438 L 381 160.855469 L 384 158.351562 L 387 156.339844 L 390 154.777344 L 393 153.613281 L 396 152.804688 L 399 152.304688 L 402 152.070312 L 405 152.054688 L 408 152.21875 L 411 152.53125 L 414 152.957031 L 417 153.464844 L 420 154.035156 L 423 154.648438 L 426 155.277344 L 429 155.917969 L 432 156.554688 L 435 157.175781 L 438 157.777344 L 441 158.351562 L 444 158.898438 L 447 159.414062 L 450 159.898438 L 453 160.351562 L 456 160.773438 L 459 161.164062 L 462 161.527344 L 465 161.859375 L 468 162.167969 L 471 162.453125 L 474 162.714844 L 477 162.957031 L 480 163.179688 L 483 163.382812 L 486 163.574219 L 489 163.746094 L 492 163.910156 L 495 164.058594 L 498 164.199219 L 501 164.328125 L 504 164.449219 L 507 164.5625 L 510 164.667969 L 513 164.765625 L 516 164.859375 L 519 164.945312 L 522 165.027344 L 528 165.175781 L 531 165.242188 L 537 165.367188 L 540 165.425781 "/>
<path style="fill-rule:nonzero;fill:rgb(53.33252%,53.33252%,53.33252%);fill-opacity:1;stroke-width:2.4;stroke-linecap:square;stroke-linejoin:miter;stroke:rgb(53.33252%,53.33252%,53.33252%);stroke-opacity:1;stroke-miterlimit:3.25;" d="M 386.273438 166.871094 L 284.796875 166.871094 L 285 168.042969 L 288 184.953125 L 291 201.179688 L 294 216.464844 L 297 230.566406 L 300 243.285156 L 303 254.457031 L 306 263.960938 L 309 271.714844 L 312 277.675781 L 315 281.851562 L 318 284.277344 L 321 285.03125 L 324 284.214844 L 327 281.960938 L 330 278.425781 L 333 273.765625 L 336 268.167969 L 339 261.804688 L 342 254.859375 L 345 247.503906 L 348 239.910156 L 351 232.226562 L 354 224.589844 L 357 217.125 L 360 209.933594 L 363 203.101562 L 366 196.699219 L 369 190.777344 L 372 185.363281 L 375 180.480469 L 378 176.132812 L 381 172.316406 L 384 169.007812 Z M 386.273438 166.871094 "/>
<path style="fill-rule:nonzero;fill:rgb(53.33252%,53.33252%,53.33252%);fill-opacity:1;stroke-width:2.4;stroke-linecap:square;stroke-linejoin:miter;stroke:rgb(53.33252%,53.33252%,53.33252%);stroke-opacity:1;stroke-miterlimit:3.25;" d="M 192.457031 166.871094 L 0 166.871094 L 0 168.164062 L 3 168.214844 L 6 168.269531 L 9 168.328125 L 15 168.453125 L 21 168.59375 L 24 168.671875 L 30 168.84375 L 33 168.941406 L 36 169.042969 L 39 169.152344 L 42 169.269531 L 45 169.398438 L 48 169.535156 L 51 169.6875 L 54 169.851562 L 57 170.03125 L 60 170.226562 L 63 170.441406 L 66 170.675781 L 69 170.9375 L 72 171.222656 L 75 171.542969 L 78 171.894531 L 81 172.285156 L 84 172.71875 L 87 173.199219 L 90 173.734375 L 93 174.324219 L 96 174.984375 L 99 175.710938 L 102 176.511719 L 105 177.394531 L 108 178.363281 L 111 179.417969 L 114 180.570312 L 117 181.8125 L 120 183.152344 L 123 184.578125 L 126 186.089844 L 129 187.675781 L 132 189.320312 L 135 191.003906 L 138 192.707031 L 141 194.402344 L 144 196.042969 L 147 197.597656 L 150 199.015625 L 153 200.242188 L 156 201.210938 L 159 201.863281 L 162 202.125 L 165 201.925781 L 168 201.1875 L 171 199.835938 L 174 197.800781 L 177 195.011719 L 180 191.40625 L 183 186.945312 L 186 181.582031 L 189 175.300781 L 192 168.097656 Z M 192.457031 166.871094 "/>
<path style="fill-rule:nonzero;fill:rgb(53.33252%,53.33252%,53.33252%);fill-opacity:1;stroke-width:2.4;stroke-linecap:square;stroke-linejoin:miter;stroke:rgb(53.33252%,53.33252%,53.33252%);stroke-opacity:1;stroke-miterlimit:3.25;" d="M 192.457031 166.871094 L 284.796875 166.871094 L 282 150.734375 L 279 133.335938 L 276 116.152344 L 273 99.492188 L 270 83.65625 L 267 68.925781 L 264 55.5625 L 261 43.789062 L 258 33.796875 L 255 25.738281 L 252 19.710938 L 249 15.773438 L 246 13.933594 L 243 14.15625 L 240 16.363281 L 237 20.433594 L 234 26.207031 L 231 33.503906 L 228 42.113281 L 225 51.816406 L 222 62.371094 L 219 73.546875 L 216 85.101562 L 213 96.816406 L 210 108.476562 L 207 119.890625 L 204 130.882812 L 201 141.308594 L 198 151.046875 L 195 160 Z M 192.457031 166.871094 "/>
<path style="fill-rule:nonzero;fill:rgb(53.33252%,53.33252%,53.33252%);fill-opacity:1;stroke-width:2.4;stroke-linecap:square;stroke-linejoin:miter;stroke:rgb(53.33252%,53.33252%,53.33252%);stroke-opacity:1;stroke-miterlimit:3.25;" d="M 386.273438 166.871094 L 540 166.871094 L 540 165.574219 L 537 165.523438 L 534 165.46875 L 528 165.351562 L 522 165.21875 L 519 165.144531 L 516 165.066406 L 513 164.984375 L 510 164.898438 L 504 164.703125 L 501 164.59375 L 498 164.480469 L 495 164.355469 L 492 164.222656 L 489 164.078125 L 486 163.921875 L 483 163.757812 L 480 163.578125 L 477 163.382812 L 474 163.175781 L 471 162.949219 L 468 162.707031 L 465 162.445312 L 462 162.164062 L 459 161.863281 L 456 161.546875 L 453 161.207031 L 450 160.847656 L 447 160.46875 L 444 160.078125 L 441 159.671875 L 438 159.261719 L 435 158.847656 L 432 158.441406 L 429 158.050781 L 426 157.6875 L 423 157.371094 L 420 157.113281 L 417 156.9375 L 414 156.863281 L 411 156.925781 L 408 157.144531 L 405 157.558594 L 402 158.203125 L 399 159.109375 L 396 160.324219 L 393 161.882812 L 390 163.824219 L 387 166.1875 Z M 386.273438 166.871094 "/>
<path style="fill:none;stroke-width:2.4;stroke-linecap:square;stroke-linejoin:miter;stroke:rgb(83.332825%,83.332825%,83.332825%);stroke-opacity:1;stroke-miterlimit:3.25;" d="M 0 168.164062 L 3 168.214844 L 6 168.269531 L 9 168.328125 L 15 168.453125 L 21 168.59375 L 24 168.671875 L 30 168.84375 L 33 168.941406 L 36 169.042969 L 39 169.152344 L 42 169.269531 L 45 169.398438 L 48 169.535156 L 51 169.6875 L 54 169.851562 L 57 170.03125 L 60 170.226562 L 63 170.441406 L 66 170.675781 L 69 170.9375 L 72 171.222656 L 75 171.542969 L 78 171.894531 L 81 172.285156 L 84 172.71875 L 87 173.199219 L 90 173.734375 L 93 174.324219 L 96 174.984375 L 99 175.710938 L 102 176.511719 L 105 177.394531 L 108 178.363281 L 111 179.417969 L 114 180.570312 L 117 181.8125 L 120 183.152344 L 123 184.578125 L 126 186.089844 L 129 187.675781 L 132 189.320312 L 135 191.003906 L 138 192.707031 L 141 194.402344 L 144 196.042969 L 147 197.597656 L 150 199.015625 L 153 200.242188 L 156 201.210938 L 159 201.863281 L 162 202.125 L 165 201.925781 L 168 201.1875 L 171 199.835938 L 174 197.800781 L 177 195.011719 L 180 191.40625 L 183 186.945312 L 186 181.582031 L 189 175.300781 L 192 168.097656 L 192.457031 166.871094 L 195 160 L 198 151.046875 L 201 141.308594 L 204 130.882812 L 207 119.890625 L 210 108.476562 L 213 96.816406 L 216 85.101562 L 219 73.546875 L 222 62.371094 L 225 51.816406 L 228 42.113281 L 231 33.503906 L 234 26.207031 L 237 20.433594 L 240 16.363281 L 243 14.15625 L 246 13.933594 L 249 15.773438 L 252 19.710938 L 255 25.738281 L 258 33.796875 L 261 43.789062 L 264 55.5625 L 267 68.925781 L 270 83.65625 L 273 99.492188 L 276 116.152344 L 279 133.335938 L 282 150.734375 L 284.796875 166.871094 L 285 168.042969 L 288 184.953125 L 291 201.179688 L 294 216.464844 L 297 230.566406 L 300 243.285156 L 303 254.457031 L 306 263.960938 L 309 271.714844 L 312 277.675781 L 315 281.851562 L 318 284.277344 L 321 285.03125 L 324 284.214844 L 327 281.960938 L 330 278.425781 L 333 273.765625 L 336 268.167969 L 339 261.804688 L 342 254.859375 L 345 247.503906 L 348 239.910156 L 351 232.226562 L 354 224.589844 L 357 217.125 L 360 209.933594 L 363 203.101562 L 366 196.699219 L 369 190.777344 L 372 185.363281 L 375 180.480469 L 378 176.132812 L 381 172.316406 L 384 169.007812 L 386.273438 166.871094 L 387 166.1875 L 390 163.824219 L 393 161.882812 L 396 160.324219 L 399 159.109375 L 402 158.203125 L 405 157.558594 L 408 157.144531 L 411 156.925781 L 414 156.863281 L 417 156.9375 L 420 157.113281 L 423 157.371094 L 426 157.6875 L 429 158.050781 L 432 158.441406 L 435 158.847656 L 438 159.261719 L 441 159.671875 L 444 160.078125 L 447 160.46875 L 450 160.847656 L 453 161.207031 L 456 161.546875 L 459 161.863281 L 462 162.164062 L 465 162.445312 L 468 162.707031 L 471 162.949219 L 474 163.175781 L 477 163.382812 L 480 163.578125 L 483 163.757812 L 486 163.921875 L 489 164.078125 L 492 164.222656 L 495 164.355469 L 498 164.480469 L 501 164.59375 L 504 164.703125 L 510 164.898438 L 513 164.984375 L 516 165.066406 L 519 165.144531 L 522 165.21875 L 528 165.351562 L 534 165.46875 L 537 165.523438 L 540 165.574219 "/>
<path style="fill-rule:nonzero;fill:rgb(44.999695%,44.999695%,44.999695%);fill-opacity:1;stroke-width:2.4;stroke-linecap:square;stroke-linejoin:miter;stroke:rgb(44.999695%,44.999695%,44.999695%);stroke-opacity:1;stroke-miterlimit:3.25;" d="M 398.308594 166.871094 L 292.253906 166.871094 L 294 176.480469 L 297 192.273438 L 300 207.121094 L 303 220.796875 L 306 233.121094 L 309 243.949219 L 312 253.175781 L 315 260.730469 L 318 266.59375 L 321 270.769531 L 324 273.316406 L 327 274.304688 L 330 273.84375 L 333 272.058594 L 336 269.097656 L 339 265.117188 L 342 260.28125 L 345 254.753906 L 348 248.703125 L 351 242.28125 L 354 235.644531 L 357 228.917969 L 360 222.234375 L 363 215.691406 L 366 209.386719 L 369 203.386719 L 372 197.753906 L 375 192.527344 L 378 187.738281 L 381 183.402344 L 384 179.519531 L 387 176.082031 L 390 173.082031 L 393 170.492188 L 396 168.289062 Z M 398.308594 166.871094 "/>
<path style="fill-rule:nonzero;fill:rgb(44.999695%,44.999695%,44.999695%);fill-opacity:1;stroke-width:2.4;stroke-linecap:square;stroke-linejoin:miter;stroke:rgb(44.999695%,44.999695%,44.999695%);stroke-opacity:1;stroke-miterlimit:3.25;" d="M 200.953125 166.871094 L 0 166.871094 L 0 167.925781 L 6 168.011719 L 9 168.058594 L 12 168.109375 L 18 168.21875 L 21 168.277344 L 27 168.410156 L 30 168.484375 L 33 168.5625 L 36 168.644531 L 39 168.734375 L 42 168.832031 L 45 168.9375 L 48 169.054688 L 51 169.179688 L 54 169.316406 L 57 169.464844 L 60 169.628906 L 63 169.8125 L 66 170.011719 L 69 170.234375 L 72 170.484375 L 75 170.757812 L 78 171.066406 L 81 171.414062 L 84 171.800781 L 87 172.238281 L 90 172.726562 L 93 173.273438 L 96 173.890625 L 99 174.578125 L 102 175.347656 L 105 176.210938 L 108 177.167969 L 111 178.230469 L 114 179.40625 L 117 180.699219 L 120 182.113281 L 123 183.652344 L 126 185.316406 L 129 187.101562 L 132 189.003906 L 135 191.007812 L 138 193.097656 L 141 195.257812 L 144 197.453125 L 147 199.652344 L 150 201.8125 L 153 203.886719 L 156 205.8125 L 159 207.527344 L 162 208.960938 L 165 210.039062 L 168 210.675781 L 171 210.785156 L 174 210.285156 L 177 209.085938 L 180 207.109375 L 183 204.277344 L 186 200.527344 L 189 195.804688 L 192 190.070312 L 195 183.304688 L 198 175.519531 Z M 200.953125 166.871094 "/>
<path style="fill-rule:nonzero;fill:rgb(44.999695%,44.999695%,44.999695%);fill-opacity:1;stroke-width:2.4;stroke-linecap:square;stroke-linejoin:miter;stroke:rgb(44.999695%,44.999695%,44.999695%);stroke-opacity:1;stroke-miterlimit:3.25;" d="M 200.953125 166.871094 L 292.253906 166.871094 L 291 159.984375 L 288 143.058594 L 285 126 L 282 109.105469 L 279 92.683594 L 276 77.035156 L 273 62.449219 L 270 49.1875 L 267 37.492188 L 264 27.5625 L 261 19.570312 L 258 13.625 L 255 9.808594 L 252 8.140625 L 249 8.597656 L 246 11.113281 L 243 15.578125 L 240 21.839844 L 237 29.714844 L 234 38.996094 L 231 49.453125 L 228 60.839844 L 225 72.90625 L 222 85.40625 L 219 98.09375 L 216 110.742188 L 213 123.132812 L 210 135.082031 L 207 146.417969 L 204 157.007812 L 201 166.734375 Z M 200.953125 166.871094 "/>
<path style="fill-rule:nonzero;fill:rgb(44.999695%,44.999695%,44.999695%);fill-opacity:1;stroke-width:2.4;stroke-linecap:square;stroke-linejoin:miter;stroke:rgb(44.999695%,44.999695%,44.999695%);stroke-opacity:1;stroke-miterlimit:3.25;" d="M 398.308594 166.871094 L 540 166.871094 L 540 165.8125 L 534 165.726562 L 531 165.679688 L 525 165.578125 L 519 165.460938 L 516 165.398438 L 513 165.332031 L 507 165.183594 L 504 165.101562 L 501 165.015625 L 498 164.921875 L 495 164.820312 L 492 164.714844 L 489 164.597656 L 486 164.476562 L 483 164.34375 L 480 164.199219 L 477 164.046875 L 474 163.886719 L 471 163.710938 L 468 163.527344 L 465 163.332031 L 462 163.125 L 459 162.90625 L 456 162.679688 L 453 162.445312 L 444 161.71875 L 441 161.484375 L 438 161.265625 L 435 161.066406 L 432 160.902344 L 429 160.785156 L 426 160.722656 L 423 160.742188 L 420 160.851562 L 417 161.082031 L 414 161.453125 L 411 161.996094 L 408 162.734375 L 405 163.699219 L 402 164.925781 L 399 166.445312 Z M 398.308594 166.871094 "/>
<path style="fill:none;stroke-width:2.4;stroke-linecap:square;stroke-linejoin:miter;stroke:rgb(74.998474%,74.998474%,74.998474%);stroke-opacity:1;stroke-miterlimit:3.25;" d="M 0 167.925781 L 6 168.011719 L 9 168.058594 L 12 168.109375 L 18 168.21875 L 21 168.277344 L 27 168.410156 L 30 168.484375 L 33 168.5625 L 36 168.644531 L 39 168.734375 L 42 168.832031 L 45 168.9375 L 48 169.054688 L 51 169.179688 L 54 169.316406 L 57 169.464844 L 60 169.628906 L 63 169.8125 L 66 170.011719 L 69 170.234375 L 72 170.484375 L 75 170.757812 L 78 171.066406 L 81 171.414062 L 84 171.800781 L 87 172.238281 L 90 172.726562 L 93 173.273438 L 96 173.890625 L 99 174.578125 L 102 175.347656 L 105 176.210938 L 108 177.167969 L 111 178.230469 L 114 179.40625 L 117 180.699219 L 120 182.113281 L 123 183.652344 L 126 185.316406 L 129 187.101562 L 132 189.003906 L 135 191.007812 L 138 193.097656 L 141 195.257812 L 144 197.453125 L 147 199.652344 L 150 201.8125 L 153 203.886719 L 156 205.8125 L 159 207.527344 L 162 208.960938 L 165 210.039062 L 168 210.675781 L 171 210.785156 L 174 210.285156 L 177 209.085938 L 180 207.109375 L 183 204.277344 L 186 200.527344 L 189 195.804688 L 192 190.070312 L 195 183.304688 L 198 175.519531 L 200.953125 166.871094 L 201 166.734375 L 204 157.007812 L 207 146.417969 L 210 135.082031 L 213 123.132812 L 216 110.742188 L 219 98.09375 L 222 85.40625 L 225 72.90625 L 228 60.839844 L 231 49.453125 L 234 38.996094 L 237 29.714844 L 240 21.839844 L 243 15.578125 L 246 11.113281 L 249 8.597656 L 252 8.140625 L 255 9.808594 L 258 13.625 L 261 19.570312 L 264 27.5625 L 267 37.492188 L 270 49.1875 L 273 62.449219 L 276 77.035156 L 279 92.683594 L 282 109.105469 L 285 126 L 288 143.058594 L 291 159.984375 L 292.253906 166.871094 L 294 176.480469 L 297 192.273438 L 300 207.121094 L 303 220.796875 L 306 233.121094 L 309 243.949219 L 312 253.175781 L 315 260.730469 L 318 266.59375 L 321 270.769531 L 324 273.316406 L 327 274.304688 L 330 273.84375 L 333 272.058594 L 336 269.097656 L 339 265.117188 L 342 260.28125 L 345 254.753906 L 348 248.703125 L 351 242.28125 L 354 235.644531 L 357 228.917969 L 360 222.234375 L 363 215.691406 L 366 209.386719 L 369 203.386719 L 372 197.753906 L 375 192.527344 L 378 187.738281 L 381 183.402344 L 384 179.519531 L 387 176.082031 L 390 173.082031 L 393 170.492188 L 396 168.289062 L 398.308594 166.871094 L 399 166.445312 L 402 164.925781 L 405 163.699219 L 408 162.734375 L 411 161.996094 L 414 161.453125 L 417 161.082031 L 420 160.851562 L 423 160.742188 L 426 160.722656 L 429 160.785156 L 432 160.902344 L 435 161.066406 L 438 161.265625 L 441 161.484375 L 444 161.71875 L 453 162.445312 L 456 162.679688 L 459 162.90625 L 462 163.125 L 465 163.332031 L 468 163.527344 L 471 163.710938 L 474 163.886719 L 477 164.046875 L 480 164.199219 L 483 164.34375 L 486 164.476562 L 489 164.597656 L 492 164.714844 L 495 164.820312 L 498 164.921875 L 501 165.015625 L 504 165.101562 L 507 165.183594 L 513 165.332031 L 516 165.398438 L 519 165.460938 L 525 165.578125 L 531 165.679688 L 534 165.726562 L 540 165.8125 "/>
<path style="fill-rule:nonzero;fill:rgb(36.66687%,36.66687%,36.66687%);fill-opacity:1;stroke-width:2.4;stroke-linecap:square;stroke-linejoin:miter;stroke:rgb(36.66687%,36.66687%,36.66687%);stroke-opacity:1;stroke-miterlimit:3.25;" d="M 412.613281 166.871094 L 299.746094 166.871094 L 300 168.210938 L 303 183.460938 L 306 197.769531 L 309 210.933594 L 312 222.792969 L 315 233.214844 L 318 242.109375 L 321 249.429688 L 324 255.160156 L 327 259.324219 L 330 261.96875 L 333 263.179688 L 336 263.0625 L 339 261.734375 L 342 259.335938 L 345 256.015625 L 348 251.917969 L 351 247.203125 L 354 242.011719 L 357 236.488281 L 360 230.761719 L 363 224.957031 L 366 219.171875 L 369 213.507812 L 372 208.039062 L 375 202.828125 L 378 197.921875 L 381 193.363281 L 384 189.164062 L 387 185.347656 L 390 181.914062 L 393 178.851562 L 396 176.15625 L 399 173.804688 L 402 171.78125 L 405 170.054688 L 408 168.601562 L 411 167.398438 Z M 412.613281 166.871094 "/>
<path style="fill-rule:nonzero;fill:rgb(36.66687%,36.66687%,36.66687%);fill-opacity:1;stroke-width:2.4;stroke-linecap:square;stroke-linejoin:miter;stroke:rgb(36.66687%,36.66687%,36.66687%);stroke-opacity:1;stroke-miterlimit:3.25;" d="M 209.136719 166.871094 L 0 166.871094 L 0 167.617188 L 9 167.710938 L 12 167.746094 L 18 167.824219 L 24 167.910156 L 30 168.011719 L 33 168.066406 L 39 168.191406 L 42 168.261719 L 45 168.339844 L 48 168.421875 L 51 168.511719 L 54 168.613281 L 57 168.722656 L 60 168.84375 L 63 168.980469 L 66 169.132812 L 69 169.304688 L 72 169.496094 L 75 169.710938 L 78 169.957031 L 81 170.234375 L 84 170.550781 L 87 170.910156 L 90 171.316406 L 93 171.785156 L 96 172.316406 L 99 172.921875 L 102 173.609375 L 105 174.390625 L 108 175.273438 L 111 176.269531 L 114 177.390625 L 117 178.640625 L 120 180.039062 L 123 181.582031 L 126 183.285156 L 129 185.152344 L 132 187.175781 L 135 189.363281 L 138 191.703125 L 141 194.179688 L 144 196.78125 L 147 199.472656 L 150 202.230469 L 153 205.007812 L 156 207.757812 L 159 210.421875 L 162 212.929688 L 165 215.207031 L 168 217.175781 L 171 218.738281 L 174 219.808594 L 177 220.285156 L 180 220.066406 L 183 219.0625 L 186 217.179688 L 189 214.335938 L 192 210.457031 L 195 205.492188 L 198 199.402344 L 201 192.167969 L 204 183.800781 L 207 174.339844 Z M 209.136719 166.871094 "/>
<path style="fill-rule:nonzero;fill:rgb(36.66687%,36.66687%,36.66687%);fill-opacity:1;stroke-width:2.4;stroke-linecap:square;stroke-linejoin:miter;stroke:rgb(36.66687%,36.66687%,36.66687%);stroke-opacity:1;stroke-miterlimit:3.25;" d="M 209.136719 166.871094 L 299.746094 166.871094 L 297 152.253906 L 294 135.839844 L 291 119.253906 L 288 102.789062 L 285 86.742188 L 282 71.410156 L 279 57.085938 L 276 44.042969 L 273 32.519531 L 270 22.738281 L 267 14.875 L 264 9.058594 L 261 5.386719 L 258 3.898438 L 255 4.582031 L 252 7.386719 L 249 12.207031 L 246 18.910156 L 243 27.308594 L 240 37.199219 L 237 48.347656 L 234 60.503906 L 231 73.402344 L 228 86.789062 L 225 100.402344 L 222 113.992188 L 219 127.328125 L 216 140.203125 L 213 152.429688 L 210 163.851562 Z M 209.136719 166.871094 "/>
<path style="fill-rule:nonzero;fill:rgb(36.66687%,36.66687%,36.66687%);fill-opacity:1;stroke-width:2.4;stroke-linecap:square;stroke-linejoin:miter;stroke:rgb(36.66687%,36.66687%,36.66687%);stroke-opacity:1;stroke-miterlimit:3.25;" d="M 412.613281 166.871094 L 540 166.871094 L 540 166.121094 L 531 166.027344 L 525 165.957031 L 522 165.914062 L 519 165.875 L 513 165.78125 L 507 165.679688 L 504 165.621094 L 498 165.496094 L 495 165.425781 L 492 165.351562 L 489 165.273438 L 486 165.191406 L 483 165.101562 L 480 165.007812 L 477 164.90625 L 474 164.800781 L 471 164.691406 L 468 164.578125 L 465 164.457031 L 462 164.339844 L 456 164.097656 L 453 163.984375 L 450 163.878906 L 447 163.785156 L 444 163.710938 L 441 163.664062 L 438 163.652344 L 435 163.683594 L 432 163.773438 L 429 163.933594 L 426 164.179688 L 423 164.53125 L 420 165.003906 L 417 165.625 L 414 166.414062 Z M 412.613281 166.871094 "/>
<path style="fill:none;stroke-width:2.4;stroke-linecap:square;stroke-linejoin:miter;stroke:rgb(66.665649%,66.665649%,66.665649%);stroke-opacity:1;stroke-miterlimit:3.25;" d="M 0 167.617188 L 9 167.710938 L 12 167.746094 L 18 167.824219 L 24 167.910156 L 30 168.011719 L 33 168.066406 L 39 168.191406 L 42 168.261719 L 45 168.339844 L 48 168.421875 L 51 168.511719 L 54 168.613281 L 57 168.722656 L 60 168.84375 L 63 168.980469 L 66 169.132812 L 69 169.304688 L 72 169.496094 L 75 169.710938 L 78 169.957031 L 81 170.234375 L 84 170.550781 L 87 170.910156 L 90 171.316406 L 93 171.785156 L 96 172.316406 L 99 172.921875 L 102 173.609375 L 105 174.390625 L 108 175.273438 L 111 176.269531 L 114 177.390625 L 117 178.640625 L 120 180.039062 L 123 181.582031 L 126 183.285156 L 129 185.152344 L 132 187.175781 L 135 189.363281 L 138 191.703125 L 141 194.179688 L 144 196.78125 L 147 199.472656 L 150 202.230469 L 153 205.007812 L 156 207.757812 L 159 210.421875 L 162 212.929688 L 165 215.207031 L 168 217.175781 L 171 218.738281 L 174 219.808594 L 177 220.285156 L 180 220.066406 L 183 219.0625 L 186 217.179688 L 189 214.335938 L 192 210.457031 L 195 205.492188 L 198 199.402344 L 201 192.167969 L 204 183.800781 L 207 174.339844 L 209.136719 166.871094 L 210 163.851562 L 213 152.429688 L 216 140.203125 L 219 127.328125 L 222 113.992188 L 225 100.402344 L 228 86.789062 L 231 73.402344 L 234 60.503906 L 237 48.347656 L 240 37.199219 L 243 27.308594 L 246 18.910156 L 249 12.207031 L 252 7.386719 L 255 4.582031 L 258 3.898438 L 261 5.386719 L 264 9.058594 L 267 14.875 L 270 22.738281 L 273 32.519531 L 276 44.042969 L 279 57.085938 L 282 71.410156 L 285 86.742188 L 288 102.789062 L 291 119.253906 L 294 135.839844 L 297 152.253906 L 299.746094 166.871094 L 300 168.210938 L 303 183.460938 L 306 197.769531 L 309 210.933594 L 312 222.792969 L 315 233.214844 L 318 242.109375 L 321 249.429688 L 324 255.160156 L 327 259.324219 L 330 261.96875 L 333 263.179688 L 336 263.0625 L 339 261.734375 L 342 259.335938 L 345 256.015625 L 348 251.917969 L 351 247.203125 L 354 242.011719 L 357 236.488281 L 360 230.761719 L 363 224.957031 L 366 219.171875 L 369 213.507812 L 372 208.039062 L 375 202.828125 L 378 197.921875 L 381 193.363281 L 384 189.164062 L 387 185.347656 L 390 181.914062 L 393 178.851562 L 396 176.15625 L 399 173.804688 L 402 171.78125 L 405 170.054688 L 408 168.601562 L 411 167.398438 L 412.613281 166.871094 L 414 166.414062 L 417 165.625 L 420 165.003906 L 423 164.53125 L 426 164.179688 L 429 163.933594 L 432 163.773438 L 435 163.683594 L 438 163.652344 L 441 163.664062 L 444 163.710938 L 447 163.785156 L 450 163.878906 L 453 163.984375 L 456 164.097656 L 462 164.339844 L 465 164.457031 L 468 164.578125 L 471 164.691406 L 474 164.800781 L 477 164.90625 L 480 165.007812 L 483 165.101562 L 486 165.191406 L 489 165.273438 L 492 165.351562 L 495 165.425781 L 498 165.496094 L 504 165.621094 L 507 165.679688 L 513 165.78125 L 519 165.875 L 522 165.914062 L 525 165.957031 L 531 166.027344 L 540 166.121094 "/>
<path style="fill-rule:nonzero;fill:rgb(28.33252%,28.33252%,28.33252%);fill-opacity:1;stroke-width:2.4;stroke-linecap:square;stroke-linejoin:miter;stroke:rgb(28.33252%,28.33252%,28.33252%);stroke-opacity:1;stroke-miterlimit:3.25;" d="M 431.882812 166.871094 L 307.347656 166.871094 L 309 174.914062 L 312 188.597656 L 315 201.175781 L 318 212.5 L 321 222.464844 L 324 230.988281 L 327 238.042969 L 330 243.617188 L 333 247.738281 L 336 250.46875 L 339 251.886719 L 342 252.089844 L 345 251.199219 L 348 249.339844 L 351 246.648438 L 354 243.257812 L 357 239.3125 L 360 234.9375 L 363 230.257812 L 366 225.398438 L 369 220.453125 L 372 215.519531 L 375 210.675781 L 378 205.988281 L 381 201.515625 L 384 197.292969 L 387 193.355469 L 390 189.71875 L 393 186.398438 L 396 183.390625 L 399 180.695312 L 402 178.300781 L 405 176.191406 L 408 174.351562 L 411 172.765625 L 414 171.402344 L 417 170.25 L 420 169.28125 L 423 168.476562 L 426 167.816406 L 429 167.28125 Z M 431.882812 166.871094 "/>
<path style="fill-rule:nonzero;fill:rgb(28.33252%,28.33252%,28.33252%);fill-opacity:1;stroke-width:2.4;stroke-linecap:square;stroke-linejoin:miter;stroke:rgb(28.33252%,28.33252%,28.33252%);stroke-opacity:1;stroke-miterlimit:3.25;" d="M 217.132812 166.871094 L 0 166.871094 L 0 167.257812 L 9 167.304688 L 18 167.363281 L 27 167.433594 L 30 167.460938 L 36 167.523438 L 39 167.558594 L 45 167.636719 L 48 167.683594 L 51 167.734375 L 54 167.789062 L 57 167.855469 L 60 167.925781 L 63 168.007812 L 66 168.097656 L 69 168.207031 L 72 168.328125 L 75 168.46875 L 78 168.632812 L 81 168.824219 L 84 169.046875 L 87 169.304688 L 90 169.609375 L 93 169.960938 L 96 170.375 L 99 170.851562 L 102 171.410156 L 105 172.058594 L 108 172.804688 L 111 173.667969 L 114 174.65625 L 117 175.78125 L 120 177.0625 L 123 178.511719 L 126 180.136719 L 129 181.953125 L 132 183.96875 L 135 186.1875 L 138 188.613281 L 141 191.242188 L 144 194.066406 L 147 197.074219 L 150 200.238281 L 153 203.53125 L 156 206.917969 L 159 210.347656 L 162 213.757812 L 165 217.085938 L 168 220.246094 L 171 223.160156 L 174 225.726562 L 177 227.839844 L 180 229.398438 L 183 230.292969 L 186 230.40625 L 189 229.632812 L 192 227.878906 L 195 225.046875 L 198 221.066406 L 201 215.875 L 204 209.441406 L 207 201.753906 L 210 192.828125 L 213 182.710938 L 216 171.484375 Z M 217.132812 166.871094 "/>
<path style="fill-rule:nonzero;fill:rgb(28.33252%,28.33252%,28.33252%);fill-opacity:1;stroke-width:2.4;stroke-linecap:square;stroke-linejoin:miter;stroke:rgb(28.33252%,28.33252%,28.33252%);stroke-opacity:1;stroke-miterlimit:3.25;" d="M 217.132812 166.871094 L 307.347656 166.871094 L 306 160.3125 L 303 144.996094 L 300 129.214844 L 297 113.226562 L 294 97.3125 L 291 81.769531 L 288 66.882812 L 285 52.941406 L 282 40.222656 L 279 28.972656 L 276 19.417969 L 273 11.75 L 270 6.113281 L 267 2.613281 L 264 1.3125 L 261 2.210938 L 258 5.273438 L 255 10.414062 L 252 17.5 L 249 26.359375 L 246 36.785156 L 243 48.550781 L 240 61.394531 L 237 75.054688 L 234 89.253906 L 231 103.722656 L 228 118.199219 L 225 132.425781 L 222 146.183594 L 219 159.257812 Z M 217.132812 166.871094 "/>
<path style="fill-rule:nonzero;fill:rgb(28.33252%,28.33252%,28.33252%);fill-opacity:1;stroke-width:2.4;stroke-linecap:square;stroke-linejoin:miter;stroke:rgb(28.33252%,28.33252%,28.33252%);stroke-opacity:1;stroke-miterlimit:3.25;" d="M 431.882812 166.871094 L 540 166.871094 L 540 166.480469 L 531 166.433594 L 519 166.355469 L 513 166.308594 L 504 166.226562 L 498 166.164062 L 489 166.058594 L 483 165.980469 L 480 165.9375 L 477 165.898438 L 474 165.855469 L 471 165.816406 L 468 165.78125 L 465 165.75 L 462 165.726562 L 459 165.710938 L 456 165.707031 L 453 165.71875 L 450 165.757812 L 447 165.820312 L 444 165.917969 L 441 166.0625 L 438 166.257812 L 435 166.515625 L 432 166.851562 Z M 431.882812 166.871094 "/>
<path style="fill:none;stroke-width:2.4;stroke-linecap:square;stroke-linejoin:miter;stroke:rgb(58.332825%,58.332825%,58.332825%);stroke-opacity:1;stroke-miterlimit:3.25;" d="M 0 167.257812 L 9 167.304688 L 18 167.363281 L 27 167.433594 L 30 167.460938 L 36 167.523438 L 39 167.558594 L 45 167.636719 L 48 167.683594 L 51 167.734375 L 54 167.789062 L 57 167.855469 L 60 167.925781 L 63 168.007812 L 66 168.097656 L 69 168.207031 L 72 168.328125 L 75 168.46875 L 78 168.632812 L 81 168.824219 L 84 169.046875 L 87 169.304688 L 90 169.609375 L 93 169.960938 L 96 170.375 L 99 170.851562 L 102 171.410156 L 105 172.058594 L 108 172.804688 L 111 173.667969 L 114 174.65625 L 117 175.78125 L 120 177.0625 L 123 178.511719 L 126 180.136719 L 129 181.953125 L 132 183.96875 L 135 186.1875 L 138 188.613281 L 141 191.242188 L 144 194.066406 L 147 197.074219 L 150 200.238281 L 153 203.53125 L 156 206.917969 L 159 210.347656 L 162 213.757812 L 165 217.085938 L 168 220.246094 L 171 223.160156 L 174 225.726562 L 177 227.839844 L 180 229.398438 L 183 230.292969 L 186 230.40625 L 189 229.632812 L 192 227.878906 L 195 225.046875 L 198 221.066406 L 201 215.875 L 204 209.441406 L 207 201.753906 L 210 192.828125 L 213 182.710938 L 216 171.484375 L 217.132812 166.871094 L 219 159.257812 L 222 146.183594 L 225 132.425781 L 228 118.199219 L 231 103.722656 L 234 89.253906 L 237 75.054688 L 240 61.394531 L 243 48.550781 L 246 36.785156 L 249 26.359375 L 252 17.5 L 255 10.414062 L 258 5.273438 L 261 2.210938 L 264 1.3125 L 267 2.613281 L 270 6.113281 L 273 11.75 L 276 19.417969 L 279 28.972656 L 282 40.222656 L 285 52.941406 L 288 66.882812 L 291 81.769531 L 294 97.3125 L 297 113.226562 L 300 129.214844 L 303 144.996094 L 306 160.3125 L 307.347656 166.871094 L 309 174.914062 L 312 188.597656 L 315 201.175781 L 318 212.5 L 321 222.464844 L 324 230.988281 L 327 238.042969 L 330 243.617188 L 333 247.738281 L 336 250.46875 L 339 251.886719 L 342 252.089844 L 345 251.199219 L 348 249.339844 L 351 246.648438 L 354 243.257812 L 357 239.3125 L 360 234.9375 L 363 230.257812 L 366 225.398438 L 369 220.453125 L 372 215.519531 L 375 210.675781 L 378 205.988281 L 381 201.515625 L 384 197.292969 L 387 193.355469 L 390 189.71875 L 393 186.398438 L 396 183.390625 L 399 180.695312 L 402 178.300781 L 405 176.191406 L 408 174.351562 L 411 172.765625 L 414 171.402344 L 417 170.25 L 420 169.28125 L 423 168.476562 L 426 167.816406 L 429 167.28125 L 431.882812 166.871094 L 432 166.851562 L 435 166.515625 L 438 166.257812 L 441 166.0625 L 444 165.917969 L 447 165.820312 L 450 165.757812 L 453 165.71875 L 456 165.707031 L 459 165.710938 L 462 165.726562 L 465 165.75 L 468 165.78125 L 471 165.816406 L 474 165.855469 L 477 165.898438 L 480 165.9375 L 483 165.980469 L 489 166.058594 L 498 166.164062 L 504 166.226562 L 513 166.308594 L 519 166.355469 L 531 166.433594 L 540 166.480469 "/>
<path style="fill-rule:nonzero;fill:rgb(19.999695%,19.999695%,19.999695%);fill-opacity:1;stroke-width:2.4;stroke-linecap:square;stroke-linejoin:miter;stroke:rgb(19.999695%,19.999695%,19.999695%);stroke-opacity:1;stroke-miterlimit:3.25;" d="M 224.984375 166.871094 L 0 166.871094 L 30 166.871094 L 33 166.875 L 36 166.875 L 39 166.878906 L 42 166.878906 L 45 166.882812 L 54 166.90625 L 57 166.917969 L 60 166.933594 L 63 166.953125 L 66 166.980469 L 69 167.015625 L 72 167.0625 L 75 167.117188 L 78 167.191406 L 81 167.28125 L 84 167.394531 L 87 167.535156 L 90 167.710938 L 93 167.925781 L 96 168.191406 L 99 168.511719 L 102 168.902344 L 105 169.371094 L 108 169.933594 L 111 170.601562 L 114 171.390625 L 117 172.316406 L 120 173.394531 L 123 174.644531 L 126 176.085938 L 129 177.730469 L 132 179.59375 L 135 181.695312 L 138 184.042969 L 141 186.640625 L 144 189.5 L 147 192.613281 L 150 195.972656 L 153 199.558594 L 156 203.351562 L 159 207.308594 L 162 211.390625 L 165 215.539062 L 168 219.683594 L 171 223.742188 L 174 227.632812 L 177 231.242188 L 180 234.472656 L 183 237.199219 L 186 239.300781 L 189 240.65625 L 192 241.140625 L 195 240.636719 L 198 239.035156 L 201 236.246094 L 204 232.179688 L 207 226.789062 L 210 220.03125 L 213 211.910156 L 216 202.449219 L 219 191.707031 L 222 179.78125 Z M 224.984375 166.871094 "/>
<path style="fill-rule:nonzero;fill:rgb(19.999695%,19.999695%,19.999695%);fill-opacity:1;stroke-width:2.4;stroke-linecap:square;stroke-linejoin:miter;stroke:rgb(19.999695%,19.999695%,19.999695%);stroke-opacity:1;stroke-miterlimit:3.25;" d="M 540 166.871094 L 315.015625 166.871094 L 318 179.78125 L 321 191.707031 L 324 202.449219 L 327 211.910156 L 330 220.03125 L 333 226.789062 L 336 232.179688 L 339 236.246094 L 342 239.035156 L 345 240.636719 L 348 241.140625 L 351 240.65625 L 354 239.300781 L 357 237.199219 L 360 234.472656 L 363 231.242188 L 366 227.632812 L 369 223.742188 L 372 219.683594 L 375 215.539062 L 378 211.390625 L 381 207.308594 L 384 203.351562 L 387 199.558594 L 390 195.972656 L 393 192.613281 L 396 189.5 L 399 186.640625 L 402 184.042969 L 405 181.695312 L 408 179.59375 L 411 177.730469 L 414 176.085938 L 417 174.644531 L 420 173.394531 L 423 172.316406 L 426 171.390625 L 429 170.601562 L 432 169.933594 L 435 169.371094 L 438 168.902344 L 441 168.511719 L 444 168.191406 L 447 167.925781 L 450 167.710938 L 453 167.535156 L 456 167.394531 L 459 167.28125 L 462 167.191406 L 465 167.117188 L 468 167.0625 L 471 167.015625 L 474 166.980469 L 477 166.953125 L 480 166.933594 L 483 166.917969 L 486 166.90625 L 495 166.882812 L 498 166.878906 L 501 166.878906 L 504 166.875 L 507 166.875 L 510 166.871094 Z M 540 166.871094 "/>
<path style="fill-rule:nonzero;fill:rgb(19.999695%,19.999695%,19.999695%);fill-opacity:1;stroke-width:2.4;stroke-linecap:square;stroke-linejoin:miter;stroke:rgb(19.999695%,19.999695%,19.999695%);stroke-opacity:1;stroke-miterlimit:3.25;" d="M 224.984375 166.871094 L 315.015625 166.871094 L 315 166.796875 L 312 152.921875 L 309 138.347656 L 306 123.296875 L 303 108.019531 L 300 92.78125 L 297 77.855469 L 294 63.53125 L 291 50.085938 L 288 37.792969 L 285 26.910156 L 282 17.664062 L 279 10.253906 L 276 4.84375 L 273 1.546875 L 270 0.441406 L 267 1.546875 L 264 4.84375 L 261 10.253906 L 258 17.664062 L 255 26.910156 L 252 37.792969 L 249 50.085938 L 246 63.53125 L 243 77.855469 L 240 92.78125 L 237 108.019531 L 234 123.296875 L 231 138.347656 L 228 152.921875 L 225 166.796875 Z M 224.984375 166.871094 "/>
<path style="fill:none;stroke-width:2.4;stroke-linecap:square;stroke-linejoin:miter;stroke:rgb(50%,50%,50%);stroke-opacity:1;stroke-miterlimit:3.25;" d="M 0 166.871094 L 30 166.871094 L 33 166.875 L 36 166.875 L 39 166.878906 L 42 166.878906 L 45 166.882812 L 54 166.90625 L 57 166.917969 L 60 166.933594 L 63 166.953125 L 66 166.980469 L 69 167.015625 L 72 167.0625 L 75 167.117188 L 78 167.191406 L 81 167.28125 L 84 167.394531 L 87 167.535156 L 90 167.710938 L 93 167.925781 L 96 168.191406 L 99 168.511719 L 102 168.902344 L 105 169.371094 L 108 169.933594 L 111 170.601562 L 114 171.390625 L 117 172.316406 L 120 173.394531 L 123 174.644531 L 126 176.085938 L 129 177.730469 L 132 179.59375 L 135 181.695312 L 138 184.042969 L 141 186.640625 L 144 189.5 L 147 192.613281 L 150 195.972656 L 153 199.558594 L 156 203.351562 L 159 207.308594 L 162 211.390625 L 165 215.539062 L 168 219.683594 L 171 223.742188 L 174 227.632812 L 177 231.242188 L 180 234.472656 L 183 237.199219 L 186 239.300781 L 189 240.65625 L 192 241.140625 L 195 240.636719 L 198 239.035156 L 201 236.246094 L 204 232.179688 L 207 226.789062 L 210 220.03125 L 213 211.910156 L 216 202.449219 L 219 191.707031 L 222 179.78125 L 224.984375 166.871094 L 225 166.796875 L 228 152.921875 L 231 138.347656 L 234 123.296875 L 237 108.019531 L 240 92.78125 L 243 77.855469 L 246 63.53125 L 249 50.085938 L 252 37.792969 L 255 26.910156 L 258 17.664062 L 261 10.253906 L 264 4.84375 L 267 1.546875 L 270 0.441406 L 273 1.546875 L 276 4.84375 L 279 10.253906 L 282 17.664062 L 285 26.910156 L 288 37.792969 L 291 50.085938 L 294 63.53125 L 297 77.855469 L 300 92.78125 L 303 108.019531 L 306 123.296875 L 309 138.347656 L 312 152.921875 L 315 166.796875 L 315.015625 166.871094 L 318 179.78125 L 321 191.707031 L 324 202.449219 L 327 211.910156 L 330 220.03125 L 333 226.789062 L 336 232.179688 L 339 236.246094 L 342 239.035156 L 345 240.636719 L 348 241.140625 L 351 240.65625 L 354 239.300781 L 357 237.199219 L 360 234.472656 L 363 231.242188 L 366 227.632812 L 369 223.742188 L 372 219.683594 L 375 215.539062 L 378 211.390625 L 381 207.308594 L 384 203.351562 L 387 199.558594 L 390 195.972656 L 393 192.613281 L 396 189.5 L 399 186.640625 L 402 184.042969 L 405 181.695312 L 408 179.59375 L 411 177.730469 L 414 176.085938 L 417 174.644531 L 420 173.394531 L 423 172.316406 L 426 171.390625 L 429 170.601562 L 432 169.933594 L 435 169.371094 L 438 168.902344 L 441 168.511719 L 444 168.191406 L 447 167.925781 L 450 167.710938 L 453 167.535156 L 456 167.394531 L 459 167.28125 L 462 167.191406 L 465 167.117188 L 468 167.0625 L 471 167.015625 L 474 166.980469 L 477 166.953125 L 480 166.933594 L 483 166.917969 L 486 166.90625 L 495 166.882812 L 498 166.878906 L 501 166.878906 L 504 166.875 L 507 166.875 L 510 166.871094 L 540 166.871094 "/>
<path style="fill-rule:nonzero;fill:rgb(11.66687%,11.66687%,11.66687%);fill-opacity:1;stroke-width:2.4;stroke-linecap:square;stroke-linejoin:miter;stroke:rgb(11.66687%,11.66687%,11.66687%);stroke-opacity:1;stroke-miterlimit:3.25;" d="M 232.652344 166.871094 L 108.117188 166.871094 L 111 167.28125 L 114 167.816406 L 117 168.476562 L 120 169.28125 L 123 170.25 L 126 171.402344 L 129 172.765625 L 132 174.351562 L 135 176.191406 L 138 178.300781 L 141 180.695312 L 144 183.390625 L 147 186.398438 L 150 189.71875 L 153 193.355469 L 156 197.292969 L 159 201.515625 L 162 205.988281 L 165 210.675781 L 168 215.519531 L 171 220.453125 L 174 225.398438 L 177 230.257812 L 180 234.9375 L 183 239.3125 L 186 243.257812 L 189 246.648438 L 192 249.339844 L 195 251.199219 L 198 252.089844 L 201 251.886719 L 204 250.46875 L 207 247.738281 L 210 243.617188 L 213 238.042969 L 216 230.988281 L 219 222.464844 L 222 212.5 L 225 201.175781 L 228 188.597656 L 231 174.914062 Z M 232.652344 166.871094 "/>
<path style="fill-rule:nonzero;fill:rgb(11.66687%,11.66687%,11.66687%);fill-opacity:1;stroke-width:2.4;stroke-linecap:square;stroke-linejoin:miter;stroke:rgb(11.66687%,11.66687%,11.66687%);stroke-opacity:1;stroke-miterlimit:3.25;" d="M 540 167.257812 L 540 166.871094 L 322.867188 166.871094 L 324 171.484375 L 327 182.710938 L 330 192.828125 L 333 201.753906 L 336 209.441406 L 339 215.875 L 342 221.066406 L 345 225.046875 L 348 227.878906 L 351 229.632812 L 354 230.40625 L 357 230.292969 L 360 229.398438 L 363 227.839844 L 366 225.726562 L 369 223.160156 L 372 220.246094 L 375 217.085938 L 378 213.757812 L 381 210.347656 L 384 206.917969 L 387 203.53125 L 390 200.238281 L 393 197.074219 L 396 194.066406 L 399 191.242188 L 402 188.613281 L 405 186.1875 L 408 183.96875 L 411 181.953125 L 414 180.136719 L 417 178.511719 L 420 177.0625 L 423 175.78125 L 426 174.65625 L 429 173.667969 L 432 172.804688 L 435 172.058594 L 438 171.410156 L 441 170.851562 L 444 170.375 L 447 169.960938 L 450 169.609375 L 453 169.304688 L 456 169.046875 L 459 168.824219 L 462 168.632812 L 465 168.46875 L 468 168.328125 L 471 168.207031 L 474 168.097656 L 477 168.007812 L 480 167.925781 L 483 167.855469 L 486 167.789062 L 489 167.734375 L 492 167.683594 L 495 167.636719 L 501 167.558594 L 504 167.523438 L 510 167.460938 L 513 167.433594 L 522 167.363281 L 531 167.304688 Z M 540 167.257812 "/>
<path style="fill-rule:nonzero;fill:rgb(11.66687%,11.66687%,11.66687%);fill-opacity:1;stroke-width:2.4;stroke-linecap:square;stroke-linejoin:miter;stroke:rgb(11.66687%,11.66687%,11.66687%);stroke-opacity:1;stroke-miterlimit:3.25;" d="M 232.652344 166.871094 L 322.867188 166.871094 L 321 159.257812 L 318 146.183594 L 315 132.425781 L 312 118.199219 L 309 103.722656 L 306 89.253906 L 303 75.054688 L 300 61.394531 L 297 48.550781 L 294 36.785156 L 291 26.359375 L 288 17.5 L 285 10.414062 L 282 5.273438 L 279 2.210938 L 276 1.3125 L 273 2.613281 L 270 6.113281 L 267 11.75 L 264 19.417969 L 261 28.972656 L 258 40.222656 L 255 52.941406 L 252 66.882812 L 249 81.769531 L 246 97.3125 L 243 113.226562 L 240 129.214844 L 237 144.996094 L 234 160.3125 Z M 232.652344 166.871094 "/>
<path style="fill-rule:nonzero;fill:rgb(11.66687%,11.66687%,11.66687%);fill-opacity:1;stroke-width:2.4;stroke-linecap:square;stroke-linejoin:miter;stroke:rgb(11.66687%,11.66687%,11.66687%);stroke-opacity:1;stroke-miterlimit:3.25;" d="M 0 166.480469 L 0 166.871094 L 108.117188 166.871094 L 108 166.851562 L 105 166.515625 L 102 166.257812 L 99 166.0625 L 96 165.917969 L 93 165.820312 L 90 165.757812 L 87 165.71875 L 84 165.707031 L 81 165.710938 L 78 165.726562 L 75 165.75 L 72 165.78125 L 69 165.816406 L 66 165.855469 L 63 165.898438 L 60 165.9375 L 57 165.980469 L 51 166.058594 L 42 166.164062 L 36 166.226562 L 27 166.308594 L 21 166.355469 L 9 166.433594 Z M 0 166.480469 "/>
<path style="fill:none;stroke-width:2.4;stroke-linecap:square;stroke-linejoin:miter;stroke:rgb(41.665649%,41.665649%,41.665649%);stroke-opacity:1;stroke-miterlimit:3.25;" d="M 0 166.480469 L 9 166.433594 L 21 166.355469 L 27 166.308594 L 36 166.226562 L 42 166.164062 L 51 166.058594 L 57 165.980469 L 60 165.9375 L 63 165.898438 L 66 165.855469 L 69 165.816406 L 72 165.78125 L 75 165.75 L 78 165.726562 L 81 165.710938 L 84 165.707031 L 87 165.71875 L 90 165.757812 L 93 165.820312 L 96 165.917969 L 99 166.0625 L 102 166.257812 L 105 166.515625 L 108 166.851562 L 108.117188 166.871094 L 111 167.28125 L 114 167.816406 L 117 168.476562 L 120 169.28125 L 123 170.25 L 126 171.402344 L 129 172.765625 L 132 174.351562 L 135 176.191406 L 138 178.300781 L 141 180.695312 L 144 183.390625 L 147 186.398438 L 150 189.71875 L 153 193.355469 L 156 197.292969 L 159 201.515625 L 162 205.988281 L 165 210.675781 L 168 215.519531 L 171 220.453125 L 174 225.398438 L 177 230.257812 L 180 234.9375 L 183 239.3125 L 186 243.257812 L 189 246.648438 L 192 249.339844 L 195 251.199219 L 198 252.089844 L 201 251.886719 L 204 250.46875 L 207 247.738281 L 210 243.617188 L 213 238.042969 L 216 230.988281 L 219 222.464844 L 222 212.5 L 225 201.175781 L 228 188.597656 L 231 174.914062 L 232.652344 166.871094 L 234 160.3125 L 237 144.996094 L 240 129.214844 L 243 113.226562 L 246 97.3125 L 249 81.769531 L 252 66.882812 L 255 52.941406 L 258 40.222656 L 261 28.972656 L 264 19.417969 L 267 11.75 L 270 6.113281 L 273 2.613281 L 276 1.3125 L 279 2.210938 L 282 5.273438 L 285 10.414062 L 288 17.5 L 291 26.359375 L 294 36.785156 L 297 48.550781 L 300 61.394531 L 303 75.054688 L 306 89.253906 L 309 103.722656 L 312 118.199219 L 315 132.425781 L 318 146.183594 L 321 159.257812 L 322.867188 166.871094 L 324 171.484375 L 327 182.710938 L 330 192.828125 L 333 201.753906 L 336 209.441406 L 339 215.875 L 342 221.066406 L 345 225.046875 L 348 227.878906 L 351 229.632812 L 354 230.40625 L 357 230.292969 L 360 229.398438 L 363 227.839844 L 366 225.726562 L 369 223.160156 L 372 220.246094 L 375 217.085938 L 378 213.757812 L 381 210.347656 L 384 206.917969 L 387 203.53125 L 390 200.238281 L 393 197.074219 L 396 194.066406 L 399 191.242188 L 402 188.613281 L 405 186.1875 L 408 183.96875 L 411 181.953125 L 414 180.136719 L 417 178.511719 L 420 177.0625 L 423 175.78125 L 426 174.65625 L 429 173.667969 L 432 172.804688 L 435 172.058594 L 438 171.410156 L 441 170.851562 L 444 170.375 L 447 169.960938 L 450 169.609375 L 453 169.304688 L 456 169.046875 L 459 168.824219 L 462 168.632812 L 465 168.46875 L 468 168.328125 L 471 168.207031 L 474 168.097656 L 477 168.007812 L 480 167.925781 L 483 167.855469 L 486 167.789062 L 489 167.734375 L 492 167.683594 L 495 167.636719 L 501 167.558594 L 504 167.523438 L 510 167.460938 L 513 167.433594 L 522 167.363281 L 531 167.304688 L 540 167.257812 "/>
<path style="fill-rule:nonzero;fill:rgb(3.33252%,3.33252%,3.33252%);fill-opacity:1;stroke-width:2.4;stroke-linecap:square;stroke-linejoin:miter;stroke:rgb(3.33252%,3.33252%,3.33252%);stroke-opacity:1;stroke-miterlimit:3.25;" d="M 240.253906 166.871094 L 127.386719 166.871094 L 129 167.398438 L 132 168.601562 L 135 170.054688 L 138 171.78125 L 141 173.804688 L 144 176.15625 L 147 178.851562 L 150 181.914062 L 153 185.347656 L 156 189.164062 L 159 193.363281 L 162 197.921875 L 165 202.828125 L 168 208.039062 L 171 213.507812 L 174 219.171875 L 177 224.957031 L 180 230.761719 L 183 236.488281 L 186 242.011719 L 189 247.203125 L 192 251.917969 L 195 256.015625 L 198 259.335938 L 201 261.734375 L 204 263.0625 L 207 263.179688 L 210 261.96875 L 213 259.324219 L 216 255.160156 L 219 249.429688 L 222 242.109375 L 225 233.214844 L 228 222.792969 L 231 210.933594 L 234 197.769531 L 237 183.460938 L 240 168.210938 Z M 240.253906 166.871094 "/>
<path style="fill-rule:nonzero;fill:rgb(3.33252%,3.33252%,3.33252%);fill-opacity:1;stroke-width:2.4;stroke-linecap:square;stroke-linejoin:miter;stroke:rgb(3.33252%,3.33252%,3.33252%);stroke-opacity:1;stroke-miterlimit:3.25;" d="M 540 167.617188 L 540 166.871094 L 330.863281 166.871094 L 333 174.339844 L 336 183.800781 L 339 192.167969 L 342 199.402344 L 345 205.492188 L 348 210.457031 L 351 214.335938 L 354 217.179688 L 357 219.0625 L 360 220.066406 L 363 220.285156 L 366 219.808594 L 369 218.738281 L 372 217.175781 L 375 215.207031 L 378 212.929688 L 381 210.421875 L 384 207.757812 L 387 205.007812 L 390 202.230469 L 393 199.472656 L 396 196.78125 L 399 194.179688 L 402 191.703125 L 405 189.363281 L 408 187.175781 L 411 185.152344 L 414 183.285156 L 417 181.582031 L 420 180.039062 L 423 178.640625 L 426 177.390625 L 429 176.269531 L 432 175.273438 L 435 174.390625 L 438 173.609375 L 441 172.921875 L 444 172.316406 L 447 171.785156 L 450 171.316406 L 453 170.910156 L 456 170.550781 L 459 170.234375 L 462 169.957031 L 465 169.710938 L 468 169.496094 L 471 169.304688 L 474 169.132812 L 477 168.980469 L 480 168.84375 L 483 168.722656 L 486 168.613281 L 489 168.511719 L 492 168.421875 L 495 168.339844 L 498 168.261719 L 501 168.191406 L 507 168.066406 L 510 168.011719 L 516 167.910156 L 522 167.824219 L 528 167.746094 L 531 167.710938 Z M 540 167.617188 "/>
<path style="fill-rule:nonzero;fill:rgb(3.33252%,3.33252%,3.33252%);fill-opacity:1;stroke-width:2.4;stroke-linecap:square;stroke-linejoin:miter;stroke:rgb(3.33252%,3.33252%,3.33252%);stroke-opacity:1;stroke-miterlimit:3.25;" d="M 240.253906 166.871094 L 330.863281 166.871094 L 330 163.851562 L 327 152.429688 L 324 140.203125 L 321 127.328125 L 318 113.992188 L 315 100.402344 L 312 86.789062 L 309 73.402344 L 306 60.503906 L 303 48.347656 L 300 37.199219 L 297 27.308594 L 294 18.910156 L 291 12.207031 L 288 7.386719 L 285 4.582031 L 282 3.898438 L 279 5.386719 L 276 9.058594 L 273 14.875 L 270 22.738281 L 267 32.519531 L 264 44.042969 L 261 57.085938 L 258 71.410156 L 255 86.742188 L 252 102.789062 L 249 119.253906 L 246 135.839844 L 243 152.253906 Z M 240.253906 166.871094 "/>
<path style="fill-rule:nonzero;fill:rgb(3.33252%,3.33252%,3.33252%);fill-opacity:1;stroke-width:2.4;stroke-linecap:square;stroke-linejoin:miter;stroke:rgb(3.33252%,3.33252%,3.33252%);stroke-opacity:1;stroke-miterlimit:3.25;" d="M 0 166.121094 L 0 166.871094 L 127.386719 166.871094 L 126 166.414062 L 123 165.625 L 120 165.003906 L 117 164.53125 L 114 164.179688 L 111 163.933594 L 108 163.773438 L 105 163.683594 L 102 163.652344 L 99 163.664062 L 96 163.710938 L 93 163.785156 L 90 163.878906 L 87 163.984375 L 84 164.097656 L 78 164.339844 L 75 164.457031 L 72 164.578125 L 69 164.691406 L 66 164.800781 L 63 164.90625 L 60 165.007812 L 57 165.101562 L 54 165.191406 L 51 165.273438 L 48 165.351562 L 45 165.425781 L 42 165.496094 L 36 165.621094 L 33 165.679688 L 27 165.78125 L 21 165.875 L 18 165.914062 L 15 165.957031 L 9 166.027344 Z M 0 166.121094 "/>
<path style="fill:none;stroke-width:2.4;stroke-linecap:square;stroke-linejoin:miter;stroke:rgb(33.332825%,33.332825%,33.332825%);stroke-opacity:1;stroke-miterlimit:3.25;" d="M 0 166.121094 L 9 166.027344 L 15 165.957031 L 18 165.914062 L 21 165.875 L 27 165.78125 L 33 165.679688 L 36 165.621094 L 42 165.496094 L 45 165.425781 L 48 165.351562 L 51 165.273438 L 54 165.191406 L 57 165.101562 L 60 165.007812 L 63 164.90625 L 66 164.800781 L 69 164.691406 L 72 164.578125 L 75 164.457031 L 78 164.339844 L 84 164.097656 L 87 163.984375 L 90 163.878906 L 93 163.785156 L 96 163.710938 L 99 163.664062 L 102 163.652344 L 105 163.683594 L 108 163.773438 L 111 163.933594 L 114 164.179688 L 117 164.53125 L 120 165.003906 L 123 165.625 L 126 166.414062 L 127.386719 166.871094 L 129 167.398438 L 132 168.601562 L 135 170.054688 L 138 171.78125 L 141 173.804688 L 144 176.15625 L 147 178.851562 L 150 181.914062 L 153 185.347656 L 156 189.164062 L 159 193.363281 L 162 197.921875 L 165 202.828125 L 168 208.039062 L 171 213.507812 L 174 219.171875 L 177 224.957031 L 180 230.761719 L 183 236.488281 L 186 242.011719 L 189 247.203125 L 192 251.917969 L 195 256.015625 L 198 259.335938 L 201 261.734375 L 204 263.0625 L 207 263.179688 L 210 261.96875 L 213 259.324219 L 216 255.160156 L 219 249.429688 L 222 242.109375 L 225 233.214844 L 228 222.792969 L 231 210.933594 L 234 197.769531 L 237 183.460938 L 240 168.210938 L 240.253906 166.871094 L 243 152.253906 L 246 135.839844 L 249 119.253906 L 252 102.789062 L 255 86.742188 L 258 71.410156 L 261 57.085938 L 264 44.042969 L 267 32.519531 L 270 22.738281 L 273 14.875 L 276 9.058594 L 279 5.386719 L 282 3.898438 L 285 4.582031 L 288 7.386719 L 291 12.207031 L 294 18.910156 L 297 27.308594 L 300 37.199219 L 303 48.347656 L 306 60.503906 L 309 73.402344 L 312 86.789062 L 315 100.402344 L 318 113.992188 L 321 127.328125 L 324 140.203125 L 327 152.429688 L 330 163.851562 L 330.863281 166.871094 L 333 174.339844 L 336 183.800781 L 339 192.167969 L 342 199.402344 L 345 205.492188 L 348 210.457031 L 351 214.335938 L 354 217.179688 L 357 219.0625 L 360 220.066406 L 363 220.285156 L 366 219.808594 L 369 218.738281 L 372 217.175781 L 375 215.207031 L 378 212.929688 L 381 210.421875 L 384 207.757812 L 387 205.007812 L 390 202.230469 L 393 199.472656 L 396 196.78125 L 399 194.179688 L 402 191.703125 L 405 189.363281 L 408 187.175781 L 411 185.152344 L 414 183.285156 L 417 181.582031 L 420 180.039062 L 423 178.640625 L 426 177.390625 L 429 176.269531 L 432 175.273438 L 435 174.390625 L 438 173.609375 L 441 172.921875 L 444 172.316406 L 447 171.785156 L 450 171.316406 L 453 170.910156 L 456 170.550781 L 459 170.234375 L 462 169.957031 L 465 169.710938 L 468 169.496094 L 471 169.304688 L 474 169.132812 L 477 168.980469 L 480 168.84375 L 483 168.722656 L 486 168.613281 L 489 168.511719 L 492 168.421875 L 495 168.339844 L 498 168.261719 L 501 168.191406 L 507 168.066406 L 510 168.011719 L 516 167.910156 L 522 167.824219 L 528 167.746094 L 531 167.710938 L 540 167.617188 "/>
<path style="fill-rule:nonzero;fill:rgb(0%,0%,0%);fill-opacity:1;stroke-width:2.4;stroke-linecap:square;stroke-linejoin:miter;stroke:rgb(0%,0%,0%);stroke-opacity:1;stroke-miterlimit:3.25;" d="M 247.746094 166.871094 L 141.691406 166.871094 L 144 168.289062 L 147 170.492188 L 150 173.082031 L 153 176.082031 L 156 179.519531 L 159 183.402344 L 162 187.738281 L 165 192.527344 L 168 197.753906 L 171 203.386719 L 174 209.386719 L 177 215.691406 L 180 222.234375 L 183 228.917969 L 186 235.644531 L 189 242.28125 L 192 248.703125 L 195 254.753906 L 198 260.28125 L 201 265.117188 L 204 269.097656 L 207 272.058594 L 210 273.84375 L 213 274.304688 L 216 273.316406 L 219 270.769531 L 222 266.59375 L 225 260.730469 L 228 253.175781 L 231 243.949219 L 234 233.121094 L 237 220.796875 L 240 207.121094 L 243 192.273438 L 246 176.480469 Z M 247.746094 166.871094 "/>
<path style="fill-rule:nonzero;fill:rgb(0%,0%,0%);fill-opacity:1;stroke-width:2.4;stroke-linecap:square;stroke-linejoin:miter;stroke:rgb(0%,0%,0%);stroke-opacity:1;stroke-miterlimit:3.25;" d="M 540 167.925781 L 540 166.871094 L 339.046875 166.871094 L 342 175.519531 L 345 183.304688 L 348 190.070312 L 351 195.804688 L 354 200.527344 L 357 204.277344 L 360 207.109375 L 363 209.085938 L 366 210.285156 L 369 210.785156 L 372 210.675781 L 375 210.039062 L 378 208.960938 L 381 207.527344 L 384 205.8125 L 387 203.886719 L 390 201.8125 L 393 199.652344 L 396 197.453125 L 399 195.257812 L 402 193.097656 L 405 191.007812 L 408 189.003906 L 411 187.101562 L 414 185.316406 L 417 183.652344 L 420 182.113281 L 423 180.699219 L 426 179.40625 L 429 178.230469 L 432 177.167969 L 435 176.210938 L 438 175.347656 L 441 174.578125 L 444 173.890625 L 447 173.273438 L 450 172.726562 L 453 172.238281 L 456 171.800781 L 459 171.414062 L 462 171.066406 L 465 170.757812 L 468 170.484375 L 471 170.234375 L 474 170.011719 L 477 169.8125 L 480 169.628906 L 483 169.464844 L 486 169.316406 L 489 169.179688 L 492 169.054688 L 495 168.9375 L 498 168.832031 L 501 168.734375 L 504 168.644531 L 507 168.5625 L 510 168.484375 L 513 168.410156 L 519 168.277344 L 522 168.21875 L 528 168.109375 L 531 168.058594 L 534 168.011719 Z M 540 167.925781 "/>
<path style="fill-rule:nonzero;fill:rgb(0%,0%,0%);fill-opacity:1;stroke-width:2.4;stroke-linecap:square;stroke-linejoin:miter;stroke:rgb(0%,0%,0%);stroke-opacity:1;stroke-miterlimit:3.25;" d="M 247.746094 166.871094 L 339.046875 166.871094 L 339 166.734375 L 336 157.007812 L 333 146.417969 L 330 135.082031 L 327 123.132812 L 324 110.742188 L 321 98.09375 L 318 85.40625 L 315 72.90625 L 312 60.839844 L 309 49.453125 L 306 38.996094 L 303 29.714844 L 300 21.839844 L 297 15.578125 L 294 11.113281 L 291 8.597656 L 288 8.140625 L 285 9.808594 L 282 13.625 L 279 19.570312 L 276 27.5625 L 273 37.492188 L 270 49.1875 L 267 62.449219 L 264 77.035156 L 261 92.683594 L 258 109.105469 L 255 126 L 252 143.058594 L 249 159.984375 Z M 247.746094 166.871094 "/>
<path style="fill-rule:nonzero;fill:rgb(0%,0%,0%);fill-opacity:1;stroke-width:2.4;stroke-linecap:square;stroke-linejoin:miter;stroke:rgb(0%,0%,0%);stroke-opacity:1;stroke-miterlimit:3.25;" d="M 0 165.8125 L 0 166.871094 L 141.691406 166.871094 L 141 166.445312 L 138 164.925781 L 135 163.699219 L 132 162.734375 L 129 161.996094 L 126 161.453125 L 123 161.082031 L 120 160.851562 L 117 160.742188 L 114 160.722656 L 111 160.785156 L 108 160.902344 L 105 161.066406 L 102 161.265625 L 99 161.484375 L 96 161.71875 L 87 162.445312 L 84 162.679688 L 81 162.90625 L 78 163.125 L 75 163.332031 L 72 163.527344 L 69 163.710938 L 66 163.886719 L 63 164.046875 L 60 164.199219 L 57 164.34375 L 54 164.476562 L 51 164.597656 L 48 164.714844 L 45 164.820312 L 42 164.921875 L 39 165.015625 L 36 165.101562 L 33 165.183594 L 27 165.332031 L 24 165.398438 L 21 165.460938 L 15 165.578125 L 9 165.679688 L 6 165.726562 Z M 0 165.8125 "/>
<path style="fill:none;stroke-width:2.4;stroke-linecap:square;stroke-linejoin:miter;stroke:rgb(25%,25%,25%);stroke-opacity:1;stroke-miterlimit:3.25;" d="M 0 165.8125 L 6 165.726562 L 9 165.679688 L 15 165.578125 L 21 165.460938 L 24 165.398438 L 27 165.332031 L 33 165.183594 L 36 165.101562 L 39 165.015625 L 42 164.921875 L 45 164.820312 L 48 164.714844 L 51 164.597656 L 54 164.476562 L 57 164.34375 L 60 164.199219 L 63 164.046875 L 66 163.886719 L 69 163.710938 L 72 163.527344 L 75 163.332031 L 78 163.125 L 81 162.90625 L 84 162.679688 L 87 162.445312 L 96 161.71875 L 99 161.484375 L 102 161.265625 L 105 161.066406 L 108 160.902344 L 111 160.785156 L 114 160.722656 L 117 160.742188 L 120 160.851562 L 123 161.082031 L 126 161.453125 L 129 161.996094 L 132 162.734375 L 135 163.699219 L 138 164.925781 L 141 166.445312 L 141.691406 166.871094 L 144 168.289062 L 147 170.492188 L 150 173.082031 L 153 176.082031 L 156 179.519531 L 159 183.402344 L 162 187.738281 L 165 192.527344 L 168 197.753906 L 171 203.386719 L 174 209.386719 L 177 215.691406 L 180 222.234375 L 183 228.917969 L 186 235.644531 L 189 242.28125 L 192 248.703125 L 195 254.753906 L 198 260.28125 L 201 265.117188 L 204 269.097656 L 207 272.058594 L 210 273.84375 L 213 274.304688 L 216 273.316406 L 219 270.769531 L 222 266.59375 L 225 260.730469 L 228 253.175781 L 231 243.949219 L 234 233.121094 L 237 220.796875 L 240 207.121094 L 243 192.273438 L 246 176.480469 L 247.746094 166.871094 L 249 159.984375 L 252 143.058594 L 255 126 L 258 109.105469 L 261 92.683594 L 264 77.035156 L 267 62.449219 L 270 49.1875 L 273 37.492188 L 276 27.5625 L 279 19.570312 L 282 13.625 L 285 9.808594 L 288 8.140625 L 291 8.597656 L 294 11.113281 L 297 15.578125 L 300 21.839844 L 303 29.714844 L 306 38.996094 L 309 49.453125 L 312 60.839844 L 315 72.90625 L 318 85.40625 L 321 98.09375 L 324 110.742188 L 327 123.132812 L 330 135.082031 L 333 146.417969 L 336 157.007812 L 339 166.734375 L 339.046875 166.871094 L 342 175.519531 L 345 183.304688 L 348 190.070312 L 351 195.804688 L 354 200.527344 L 357 204.277344 L 360 207.109375 L 363 209.085938 L 366 210.285156 L 369 210.785156 L 372 210.675781 L 375 210.039062 L 378 208.960938 L 381 207.527344 L 384 205.8125 L 387 203.886719 L 390 201.8125 L 393 199.652344 L 396 197.453125 L 399 195.257812 L 402 193.097656 L 405 191.007812 L 408 189.003906 L 411 187.101562 L 414 185.316406 L 417 183.652344 L 420 182.113281 L 423 180.699219 L 426 179.40625 L 429 178.230469 L 432 177.167969 L 435 176.210938 L 438 175.347656 L 441 174.578125 L 444 173.890625 L 447 173.273438 L 450 172.726562 L 453 172.238281 L 456 171.800781 L 459 171.414062 L 462 171.066406 L 465 170.757812 L 468 170.484375 L 471 170.234375 L 474 170.011719 L 477 169.8125 L 480 169.628906 L 483 169.464844 L 486 169.316406 L 489 169.179688 L 492 169.054688 L 495 168.9375 L 498 168.832031 L 501 168.734375 L 504 168.644531 L 507 168.5625 L 510 168.484375 L 513 168.410156 L 519 168.277344 L 522 168.21875 L 528 168.109375 L 531 168.058594 L 534 168.011719 L 540 167.925781 "/>
</g>
</svg>
